<svg xmlns="http://www.w3.org/2000/svg" viewBox="0 0 800 1150" width="100%" height="100%"><defs /><style>
    @import url('https://fonts.googleapis.com/css2?family=Fira+Code:wght@400;500;600&amp;family=Inter:wght@400;600;700&amp;display=swap');
    
    .text-year { font-family: 'Fira Code', monospace; font-size: 22px; font-weight: 600; fill: #00e5ff; }
    .text-title { font-family: 'Inter', sans-serif; font-size: 18px; font-weight: 700; fill: #ffffff; }
    .text-date { font-family: 'Fira Code', monospace; font-size: 13px; font-weight: 400; fill: #a0c4e8; }
    .text-desc { font-family: 'Inter', sans-serif; font-size: 14px; font-weight: 400; fill: #8b949e; }
    
    .line { stroke: #1755a7; stroke-width: 3; stroke-dasharray: 10 10; animation: dash 30s linear infinite; }
    .dot { fill: #0d1117; stroke: #00e5ff; stroke-width: 4; }
    .dot-glow { fill: rgba(0, 229, 255, 0.3); animation: pulse 2s infinite alternate; }
    
    .card { fill: rgba(23, 85, 167, 0.1); stroke: rgba(0, 229, 255, 0.2); stroke-width: 1; rx: 8; transition: all 0.3s; }
    .card:hover { fill: rgba(23, 85, 167, 0.2); stroke: rgba(0, 229, 255, 0.6); transform: translateX(5px); }
    
    .anim-fade { opacity: 0; animation: fadeIn 0.8s ease-out forwards; }
    
    @keyframes dash {
        to { stroke-dashoffset: -1000; }
    }
    @keyframes pulse {
        0% { r: 6; opacity: 0.6; }
        100% { r: 12; opacity: 0; }
    }
    @keyframes fadeIn {
        from { opacity: 0; transform: translateY(10px); }
        to { opacity: 1; transform: translateY(0); }
    }
</style><line x1="120" y1="40" x2="120" y2="1130" class="line" /><text x="90" y="65" class="text-year anim-fade" text-anchor="end" style="animation-delay: 0.1s">2026</text><g class="anim-fade" style="animation-delay: 0.1s"><circle cx="120" cy="60" r="6" class="dot" /><circle cx="120" cy="60" r="6" class="dot-glow" /><line x1="126" y1="60" x2="150" y2="60" stroke="#1755a7" stroke-width="2" /><rect x="150" y="35" width="630" height="75" class="card" /><text x="170" y="60" class="text-title">Chapter President @ GeekRoom KRMU</text><text x="760" y="60" class="text-date" text-anchor="end">Jun 2026 &#8211; Present</text><text x="170" y="85" class="text-desc">Leading the GeekRoom chapter at KR Mangalam University</text></g><g class="anim-fade" style="animation-delay: 0.2s"><circle cx="120" cy="160" r="6" class="dot" /><circle cx="120" cy="160" r="6" class="dot-glow" /><line x1="126" y1="160" x2="150" y2="160" stroke="#1755a7" stroke-width="2" /><rect x="150" y="135" width="630" height="75" class="card" /><text x="170" y="160" class="text-title">Managing Director &amp; Vice Chairperson @ eOzka</text><text x="760" y="160" class="text-date" text-anchor="end">Apr 2026 &#8211; Present</text><text x="170" y="185" class="text-desc">2nd-in-command &#183; Strategy &#183; IP oversight &#183; Legal-risk</text></g><g class="anim-fade" style="animation-delay: 0.30000000000000004s"><circle cx="120" cy="260" r="6" class="dot" /><circle cx="120" cy="260" r="6" class="dot-glow" /><line x1="126" y1="260" x2="150" y2="260" stroke="#1755a7" stroke-width="2" /><rect x="150" y="235" width="630" height="75" class="card" /><text x="170" y="260" class="text-title">Student Ambassador @ CoE Cloud Computing</text><text x="760" y="260" class="text-date" text-anchor="end">Jan 2026 &#8211; Present</text><text x="170" y="285" class="text-desc">Gurugram on-site &#183; Student Welfare &amp; Council</text></g><text x="90" y="385" class="text-year anim-fade" text-anchor="end" style="animation-delay: 0.4s">2025</text><g class="anim-fade" style="animation-delay: 0.4s"><circle cx="120" cy="380" r="6" class="dot" /><circle cx="120" cy="380" r="6" class="dot-glow" /><line x1="126" y1="380" x2="150" y2="380" stroke="#1755a7" stroke-width="2" /><rect x="150" y="355" width="630" height="75" class="card" /><text x="170" y="380" class="text-title">Tech Team Lead @ TechTribeX</text><text x="760" y="380" class="text-date" text-anchor="end">Sep 2024 &#8211; Present</text><text x="170" y="405" class="text-desc">1000+ participants in HACK KRMU 5.0, also Aarambhthon 500+ all under TechTribeX</text></g><g class="anim-fade" style="animation-delay: 0.5s"><circle cx="120" cy="480" r="6" class="dot" /><circle cx="120" cy="480" r="6" class="dot-glow" /><line x1="126" y1="480" x2="150" y2="480" stroke="#1755a7" stroke-width="2" /><rect x="150" y="455" width="630" height="75" class="card" /><text x="170" y="480" class="text-title">Tech Contributor @ GirlScript Summer of Code</text><text x="760" y="480" class="text-date" text-anchor="end">Jul &#8211; Dec 2025</text><text x="170" y="505" class="text-desc">Active open-source contributions &#183; 6 months</text></g><g class="anim-fade" style="animation-delay: 0.6s"><circle cx="120" cy="580" r="6" class="dot" /><circle cx="120" cy="580" r="6" class="dot-glow" /><line x1="126" y1="580" x2="150" y2="580" stroke="#1755a7" stroke-width="2" /><rect x="150" y="555" width="630" height="50" class="card" /><text x="170" y="580" class="text-title">Full-Stack Dev &amp; Campus Ambassador @ MUESPORTS</text><text x="760" y="580" class="text-date" text-anchor="end">Jun &#8211; Aug 2025</text></g><g class="anim-fade" style="animation-delay: 0.7s"><circle cx="120" cy="680" r="6" class="dot" /><circle cx="120" cy="680" r="6" class="dot-glow" /><line x1="126" y1="680" x2="150" y2="680" stroke="#1755a7" stroke-width="2" /><rect x="150" y="655" width="630" height="75" class="card" /><text x="170" y="680" class="text-title">Full Stack Developer Intern @ CodeAlpha</text><text x="760" y="680" class="text-date" text-anchor="end">Jun &#8211; Jul 2025</text><text x="170" y="705" class="text-desc">Cert + Letter of Recommendation + Offer Letter</text></g><g class="anim-fade" style="animation-delay: 0.7999999999999999s"><circle cx="120" cy="780" r="6" class="dot" /><circle cx="120" cy="780" r="6" class="dot-glow" /><line x1="126" y1="780" x2="150" y2="780" stroke="#1755a7" stroke-width="2" /><rect x="150" y="755" width="630" height="75" class="card" /><text x="170" y="780" class="text-title">App Developer Intern @ CodeAlpha</text><text x="760" y="780" class="text-date" text-anchor="end">Jun &#8211; Jul 2025</text><text x="170" y="805" class="text-desc">2 Certs + Offer Letter</text></g><g class="anim-fade" style="animation-delay: 0.8999999999999999s"><circle cx="120" cy="880" r="6" class="dot" /><circle cx="120" cy="880" r="6" class="dot-glow" /><line x1="126" y1="880" x2="150" y2="880" stroke="#1755a7" stroke-width="2" /><rect x="150" y="855" width="630" height="75" class="card" /><text x="170" y="880" class="text-title">Machine Learning Intern @ Future Interns</text><text x="760" y="880" class="text-date" text-anchor="end">Apr &#8211; May 2025</text><text x="170" y="905" class="text-desc">Python &#183; NLP &#183; Cert + LoR</text></g><text x="90" y="1005" class="text-year anim-fade" text-anchor="end" style="animation-delay: 0.9999999999999999s">2024</text><g class="anim-fade" style="animation-delay: 0.9999999999999999s"><circle cx="120" cy="1000" r="6" class="dot" /><circle cx="120" cy="1000" r="6" class="dot-glow" /><line x1="126" y1="1000" x2="150" y2="1000" stroke="#1755a7" stroke-width="2" /><rect x="150" y="975" width="630" height="75" class="card" /><text x="170" y="1000" class="text-title">B.Tech CSE @ K.R. Mangalam University</text><text x="760" y="1000" class="text-date" text-anchor="end">Aug 2024 &#8211; Jun 2028</text><text x="170" y="1025" class="text-desc">Computer Science</text></g></svg>